<svg width="18" height="22" viewBox="0 0 18 22" fill="none" xmlns="http://www.w3.org/2000/svg">
<path d="M12.4615 2.75H16.6154C17.4462 2.75 18 3.3 18 4.125V5.5H0V4.125C0 3.3 0.692308 2.75 1.38462 2.75H5.53846C5.81538 1.2375 7.33846 0 9 0C10.6615 0 12.1846 1.2375 12.4615 2.75ZM6.92308 2.75H11.0769C10.8 1.925 9.83077 1.375 9 1.375C8.16923 1.375 7.2 1.925 6.92308 2.75ZM1.38462 6.875H16.6154L15.3692 20.7625C15.3692 21.45 14.6769 22 13.9846 22H4.01538C3.32308 22 2.76923 21.45 2.63077 20.7625L1.38462 6.875Z" fill="#CB0011"/>
</svg>
